<?xml version="1.0" encoding="utf-8"?>
<!-- Generator: Adobe Illustrator 23.0.5, SVG Export Plug-In . SVG Version: 6.00 Build 0)  -->
<svg version="1.1" id="Layer_1" xmlns="http://www.w3.org/2000/svg" xmlns:xlink="http://www.w3.org/1999/xlink" x="0px" y="0px"
	 viewBox="0 0 1080 1080" style="enable-background:new 0 0 1080 1080;" xml:space="preserve">
<style type="text/css">
	.st0{fill-rule:evenodd;clip-rule:evenodd;}
</style>
<g>
	<path class="st0" d="M207.8,499.7v102.5h14.6V499.7h35.3v-6.7h-85.1v6.7H207.8L207.8,499.7z M336.7,480.6v-6.2h-64.4v6.2H336.7
		L336.7,480.6z M272.2,602.7h65V596h-50.4v-49.3h45.9V540h-45.9v-40.3h49.3v-6.7h-63.9V602.7L272.2,602.7z M357.4,602.7h65V596H372
		v-49.3h45.9V540H372v-40.3h49.9v-6.7h-64.4V602.7L357.4,602.7z M15.7,602.7h65V596H30.2v-49.3h45.9V540H30.2v-40.3h49.9v-6.7H15.7
		V602.7L15.7,602.7z M892.9,602.7h65V596h-50.4v-49.3h45.9V540h-45.9v-40.3h49.3v-6.7h-63.9L892.9,602.7L892.9,602.7z M487.3,602.7
		h64.4v-7.3h-49.9V492.9h-14.6V602.7L487.3,602.7z M94.7,597.7c9.5,5,20.7,7.8,31.9,7.8c23,0,43.1-12.9,43.1-35.3
		c0-37.5-62.2-24.6-62.2-53.8c0-10.6,10.1-20.2,25.2-20.2s25.2,7.8,29.7,11.2v-10.1c-5.6-2.8-16.8-7.3-30.2-7.3
		c-19,0-37,11.2-37,29.7c0,39.2,61.6,25.2,61.6,54.3c0,11.8-11.2,24.1-30.2,24.1c-14.6,0-26.3-7.8-31.9-10.6V597.7L94.7,597.7z
		 M556.8,602.7l46.5-110.4h11.2l17.9,42.6l29.1,67.8h-16.2l-17.4-42h-44.3l-16.8,42L556.8,602.7L556.8,602.7z M625.7,554.6
		c-5-11.8-12.3-30.2-19.6-48.2c-7.3,19-17.4,43.1-19.6,48.2H625.7L625.7,554.6z M668.8,566.3c0,24.6,14.6,38.7,43.7,38.7
		c31.4,0,43.7-17.9,43.7-38.1v-73.9h-8.4v73.9c0,20.2-13.4,31.9-33.6,31.9c-17.9,0-31.4-9-31.4-29.7v-75.6h-14V566.3L668.8,566.3z
		 M978.6,493.5h39.8c20.7-0.6,38.1,7.8,38.1,28s-23,26.3-28,27.4l35.9,53.8h-16.8l-33.6-52.1h-21.3v52.1h-14.6V493.5H978.6z
		 M1010,544.5c17.9,0.6,31.9-6.7,31.9-23c0-14.6-9-22.4-24.6-21.8h-24.1v44.8H1010L1010,544.5z M778.1,602.7V493.5h42
		c34.7-0.6,54.9,19,54.9,53.2c0,40.9-28,56.6-60.5,56H778.1L778.1,602.7z M792.6,596h19c29.7,0.6,48.7-12.3,48.7-47.6
		c0-32.5-15.7-49.3-42-48.7h-25.2V596H792.6z"/>
</g>
</svg>
