<?xml version="1.0" encoding="utf-8"?>
<!-- Generator: Adobe Illustrator 23.0.5, SVG Export Plug-In . SVG Version: 6.00 Build 0)  -->
<svg version="1.1" id="Layer_1" xmlns="http://www.w3.org/2000/svg" xmlns:xlink="http://www.w3.org/1999/xlink" x="0px" y="0px"
	 viewBox="0 0 1080 1080" style="enable-background:new 0 0 1080 1080;" xml:space="preserve">
<style type="text/css">
	.st0{fill-rule:evenodd;clip-rule:evenodd;fill:#010101;}
	.st1{fill-rule:evenodd;clip-rule:evenodd;fill:#FFFFFF;}
</style>
<g>
	<polygon class="st0" points="988.1,988.7 91.3,988.7 91.3,91.3 988.1,91.3 	"/>
	<polygon class="st1" points="981.4,982 98.6,982 98.6,98 981.4,98 	"/>
	<path class="st0" d="M336.7,145.6c-72.3,26.3-140,71.7-192.1,137.2V145.6H336.7L336.7,145.6z"/>
	<path class="st0" d="M934.9,196.1c-48.7-10.6-91.3,9.5-129.4,31.9c-69.5-61.6-186.5-46.5-267.2-20.2
		c-41.5,15.1-80.7,33.6-115.4,63.9c-26.9,24.1-45.4,57.1-33,92.4c11.8,29.1,42,41.5,68.9,48.7c2.8,1.1,6.2,3.4,6.7,6.7
		c0,2.2-2.2,4.5-3.9,5c-18.5,9-39.8,11.2-59.9,16.2c-62.2,16.2-121.6,39.2-175.9,75.1c-28.6-17.4-55.5-38.1-80.7-63.9V313.1
		c58.3-85.7,147.3-134.4,235.3-167.5h555.1v50.4L934.9,196.1L934.9,196.1z"/>
	<path class="st0" d="M789.8,235.3c-75.6,44.8-144,121-186.5,195.5c-24.1,40.3-44.8,82.3-65.5,123.8c-74.5,7.8-158,10.1-228.5-7.8
		c-12.3-3.4-25.2-6.2-37-10.1c49.9-55.5,114.8-77.9,181.5-94.7c10.6-3.9,24.6-7.3,28-20.7c0-11.2-10.6-17.4-17.9-25.2
		c-18.5-16.2-23-40.9-16.2-63.9c20.2-67.8,92.4-105.3,154-121C662.7,196.1,739.4,196.1,789.8,235.3L789.8,235.3z"/>
	<path class="st0" d="M934.4,212.3v133.3c-92.4,105.3-207.3,165.3-331.1,198.9c53.2-101.4,113.2-200.5,204.5-285.7
		c19,23,19,60.5,5,85.7c-6.7,15.1-21.3,31.9-38.7,34.7c-7.3,2.2-17.4-0.6-21.3,7.8c-2.2,3.4-1.1,8.4,0.6,11.8
		c5.6,6.7,14.6,5,22.4,3.9c33-11.2,52.1-46.5,60.5-77.9c6.7-28.6-2.8-56.6-15.7-80.1C853.7,221.3,891.8,201.7,934.4,212.3
		L934.4,212.3z"/>
	<path class="st0" d="M934.9,766.9c-69.5,48.7-150.7,77.9-242.5,65.5c-33.6-4.5-65-12.9-96.3-22.4c50.4-45.4,96.9-95.2,95.8-163.6
		c-2.2-16.8-4.5-33.6-14.6-47c-4.5-4.5-9-8.4-15.7-7.8c-4.5,0-8.4,3.4-10.1,7.3c-4.5,12.9,12.9,15.7,16.2,26.3
		c11.8,23,4.5,54.3-4.5,76.2c-17.4,38.7-52.1,72.3-85.7,102c-42.6-17.9-82.9-40.9-122.7-66.7c59.9-49.3,100.8-110.9,136.1-172.5
		c128.3-27.5,245.3-82.9,343.9-181.5V766.9L934.9,766.9z"/>
	<path class="st0" d="M210.6,526.6C186,546.2,163,571.9,144.5,596V475C165.8,494.1,187.1,512.5,210.6,526.6L210.6,526.6z"/>
	<path class="st0" d="M529.9,571.9c-24.6,53.8-49.9,107.5-93,154c-38.1-23.5-76.2-52.1-126-45.4c-17.4,3.4-36.4,14.6-42.6,32.5
		c-4.5,14.6-2.2,32.5,9.5,43.1c20.7,19.6,48.7,23,77.3,23c31.9-1.7,59.9-13.4,85.7-30.8c37,25.2,74.5,50.4,113.1,71.7
		c-63.3,33.6-135,55.5-214,45.4C281.8,857.6,217.3,819,200,759c-19.6-64.4,3.9-128.8,38.1-179.8c6.7-10.1,14-20.2,22.4-29.7
		C341.1,578.7,438.6,581.5,529.9,571.9L529.9,571.9z"/>
	<path class="st0" d="M424,736.6c-33,25.2-88,37-126.6,14.6c-9.5-6.2-14.6-15.7-14-26.9c0-10.6,9-19.6,17.9-23.5
		c28-11.8,58.3,0,82.3,11.8C397.2,719.8,410.6,728.2,424,736.6L424,736.6z"/>
	<path class="st0" d="M387.6,887.3c67.2-3.9,126-26.3,181.5-57.7c68.9,35.3,149,64.4,231.9,42.6c49.8-12.3,93.5-39.2,133.3-74.5
		v136.7H144.5V786.5C210.6,856.5,290.7,893.5,387.6,887.3L387.6,887.3z"/>
</g>
</svg>
